<?xml version="1.0" encoding="utf-8"?>
<!-- Generator: Adobe Illustrator 19.2.1, SVG Export Plug-In . SVG Version: 6.00 Build 0)  -->
<svg version="1.1"
	 id="wso2" inkscape:version="0.48.4 r9939" sodipodi:docname="wso2.svg" xmlns:cc="http://creativecommons.org/ns#" xmlns:dc="http://purl.org/dc/elements/1.1/" xmlns:inkscape="http://www.inkscape.org/namespaces/inkscape" xmlns:rdf="http://www.w3.org/1999/02/22-rdf-syntax-ns#" xmlns:sodipodi="http://sodipodi.sourceforge.net/DTD/sodipodi-0.dtd" xmlns:svg="http://www.w3.org/2000/svg"
	 xmlns="http://www.w3.org/2000/svg" xmlns:xlink="http://www.w3.org/1999/xlink" x="0px" y="0px" viewBox="0 0 200 200"
	 style="enable-background:new 0 0 200 200;" xml:space="preserve">
<style type="text/css">
	.st0{fill:#F47B20;}
	.st1{fill:#FFFFFF;}
</style>
<ellipse id="circle3041" sodipodi:cx="82.075996" sodipodi:cy="4.1919999" sodipodi:rx="8.691" sodipodi:ry="8.691" class="st0" cx="100" cy="100" rx="80.3" ry="80.4">
</ellipse>
<path id="path3043" inkscape:connector-curvature="0" d="M180.6,96.2l-0.1-1.1h-1.1c-4.9,0-9.8,0-14.7,0c-4.9,0-9.8,0-14.7,0h-0.7
	l-0.3,0.6c-3.7,6.6-7.4,13.2-11,19.8l-3.2,5.8c-5.6-13.5-11.1-26.9-16.6-40.4c-5.8-14.2-11.6-28.4-17.5-42.6l-1-2.5l-1.1,2.4
	c-4.2,9.3-8.4,18.6-12.6,28c-5.7,12.8-11.6,26-17.6,39c-8.3-0.1-16.6-0.1-24.9-0.1c-7.6,0-15.2,0-22.9,0l-1.2,0l0,1.2
	c0,2.6,0.4,5.1,0.8,7.6l0.2,1.4h1c13.2,0,26.4,0,39.6,0h14l0.3-0.7c4.1-9,8.1-18,12.2-27c3.9-8.7,7.8-17.3,11.7-26
	c5.9,14.4,11.8,28.7,17.7,43.1c5.2,12.6,10.3,25.2,15.5,37.7l0.9,2.2l1.2-2.1c5.3-9.5,10.6-19,15.9-28.5l4.9-8.8
	c8.1,0,16.2,0,24.2,0h1.1l0.1-1.1C180.9,101.8,180.9,99.3,180.6,96.2z"/>
<path id="path3045" inkscape:connector-curvature="0" class="st1" d="M92.6,0.2c16.1-1,32.5,1.4,47.3,8
	c30.3,12.9,53.1,41.6,58.6,74.1c3.9,21.7,0.4,44.7-9.9,64.2c-13.5,26-39.1,45.4-67.8,51.3c-18.9,4-38.9,2.4-57-4.6
	c-17.4-6.7-32.8-18.5-44-33.5C8,144.1,1,124.8,0.2,105.1c-1.3-23.4,6-47.2,20.3-65.7C37.4,16.8,64.4,2.1,92.6,0.2L92.6,0.2z
	 M80.6,22.9C59.1,28.2,40.3,43,29.9,62.5c-7.2,13.3-10.1,28.7-9.4,43.8h0.2c0,2.6,0.4,5.2,0.8,7.8c4.2,25,21.1,47.5,44.1,58.3
	c18.4,9,40.2,10.4,59.6,3.8c16.2-5.3,30.4-16.1,40.2-30.1c8.6-12.3,13.6-27.1,14.2-42.1c0.2-2.6,0.1-5.2-0.1-7.8
	c-0.8-15.1-5.9-30.1-14.7-42.4c-10.2-14.4-25.3-25.2-42.2-30.1C109,19.7,94.3,19.4,80.6,22.9L80.6,22.9z"/>
</svg>
